<?xml version="1.0" encoding="UTF-8" standalone="no"?>
<!-- Created with Inkscape (http://www.inkscape.org/) -->

<svg
   xmlns:dc="http://purl.org/dc/elements/1.1/"
   xmlns:cc="http://creativecommons.org/ns#"
   xmlns:rdf="http://www.w3.org/1999/02/22-rdf-syntax-ns#"
   xmlns:svg="http://www.w3.org/2000/svg"
   xmlns="http://www.w3.org/2000/svg"
   xmlns:sodipodi="http://sodipodi.sourceforge.net/DTD/sodipodi-0.dtd"
   xmlns:inkscape="http://www.inkscape.org/namespaces/inkscape"
   width="210mm"
   height="297mm"
   viewBox="0 0 744.09448819 1052.3622047"
   id="svg2"
   version="1.1"
   inkscape:version="0.91 r13725"
   sodipodi:docname="tomatoStem.svg">
  <defs
     id="defs4" />
  <sodipodi:namedview
     id="base"
     pagecolor="#ffffff"
     bordercolor="#666666"
     borderopacity="1.0"
     inkscape:pageopacity="0.0"
     inkscape:pageshadow="2"
     inkscape:zoom="0.98994949"
     inkscape:cx="227.10481"
     inkscape:cy="623.66337"
     inkscape:document-units="px"
     inkscape:current-layer="layer1"
     showgrid="false"
     inkscape:window-width="2560"
     inkscape:window-height="1377"
     inkscape:window-x="-8"
     inkscape:window-y="-8"
     inkscape:window-maximized="1" />
  <metadata
     id="metadata7">
    <rdf:RDF>
      <cc:Work
         rdf:about="">
        <dc:format>image/svg+xml</dc:format>
        <dc:type
           rdf:resource="http://purl.org/dc/dcmitype/StillImage" />
        <dc:title></dc:title>
      </cc:Work>
    </rdf:RDF>
  </metadata>
  <g
     inkscape:label="Layer 1"
     inkscape:groupmode="layer"
     id="layer1">
    <path
       style="fill:#02d900;fill-opacity:1"
       inkscape:transform-center-x="2.8159285"
       inkscape:transform-center-y="-1.6065115"
       d="M 418.83594 457.78516 C 415.21239 460.14607 414.72146 464.8158 413.87496 468.6865 C 411.60758 479.63004 412.5001 491.38269 417.47461 501.48438 C 421.25179 509.15393 425.29311 516.87558 426.72569 525.40059 C 428.62815 534.34101 429.80739 543.8326 427.00749 552.72273 C 424.94293 560.31751 422.2417 568.06437 423.22263 576.05548 C 423.44066 580.17683 424.49628 584.35721 423.84142 588.46057 C 422.16903 591.62574 418.07646 592.11269 414.89295 591.52857 C 404.46516 591.83721 393.89397 590.07111 384.40347 585.6451 C 375.7179 582.33841 366.07522 580.00481 356.86202 582.4667 C 348.02449 584.38674 339.11281 587.2786 329.95579 586.23186 C 322.53026 586.17346 315.03271 585.83383 307.68945 587.17969 C 305.29223 588.63832 306.63772 592.70104 309.29534 592.89743 C 316.07837 595.98119 323.22451 598.15573 330.24062 600.6287 C 340.05646 603.7304 350.22866 605.53264 360.42807 606.78115 C 375.34051 610.06792 389.077 617.03554 403.6855 621.31712 C 408.54297 623.08802 413.71213 624.54015 417.8946 627.65678 C 420.4655 631.37465 419.37599 636.25958 417.63129 640.08142 C 409.60079 664.09975 398.1501 686.86618 391.02127 711.19937 C 388.81887 722.20935 392.71302 733.22602 392.01222 744.28381 C 392.04191 746.24507 391.51735 748.279 391.92578 750.19336 C 393.20796 753.07419 397.25916 753.35922 399.58008 751.60156 C 404.35184 748.86219 406.00909 742.95012 405.8455 737.76322 C 405.96941 730.47278 404.02461 722.79788 407.05734 715.84043 C 410.37003 708.51078 415.35874 702.13212 419.48476 695.26722 C 428.54485 681.44242 437.13638 667.19316 448.02734 654.69531 C 449.53353 653.0481 451.21845 651.05672 453.67736 651.18471 C 457.89266 650.95934 461.37242 653.71096 464.62434 656.0001 C 482.0194 667.42471 499.29624 679.15676 515.14373 692.67988 C 521.36005 699.76184 525.52487 708.86818 533.6875 714.07031 C 536.94378 716.15841 540.90164 717.64744 544.80859 716.86133 C 546.197 714.86339 544.43996 712.56681 543.02734 711.15039 C 536.80344 702.5419 534.79576 691.86589 532.78751 681.66219 C 529.77503 671.09687 522.13286 662.85841 515.5905 654.34555 C 504.32742 639.62559 493.13044 624.78418 483.71484 608.78906 C 482.64451 603.86335 486.39212 599.09122 490.83594 597.38867 C 503.01376 590.05682 515.04413 581.70315 529.09961 578.4375 C 537.71556 576.45325 546.83495 574.14166 553.38621 567.81471 C 560.49613 561.68831 566.33062 554.2642 571.78125 546.66797 C 572.57851 544.2085 569.17335 542.21875 567.23625 543.72019 C 554.822 547.67233 543.81575 555.32764 530.9712 558.05415 C 525.1344 559.38474 519.32894 560.88849 513.74253 563.06515 C 499.93406 568.09099 486.45623 574.74322 471.71139 576.53944 C 467.55037 576.77916 464.18228 573.50243 462.5203 569.96763 C 458.53351 562.50776 457.7473 553.93886 455.89651 545.813 C 454.02607 536.80943 450.86032 528.15238 447.79117 519.5062 C 445.45901 512.95094 442.18251 506.69103 437.60386 501.41648 C 432.07702 494.67193 428.4762 486.43381 427.19952 477.81242 C 426.0975 472.0393 426.11554 465.89545 423.46484 460.5332 C 422.61151 459.02028 420.75561 456.83508 418.83594 457.78516 z "
       id="path3348"
       inkscape:connector-curvature="0" />
  </g>
</svg>
